<mxfile host="Electron" modified="2024-03-10T11:22:34.523Z" agent="Mozilla/5.0 (Macintosh; Intel Mac OS X 10_15_7) AppleWebKit/537.36 (KHTML, like Gecko) draw.io/21.6.8 Chrome/114.0.5735.289 Electron/25.5.0 Safari/537.36" etag="tT6fTkE-Ad4RfBK5qDv2" version="21.6.8" type="device">
  <diagram name="Page-1" id="OM8HbU_3lVgDTXmEJBuc">
    <mxGraphModel dx="2044" dy="824" grid="1" gridSize="10" guides="1" tooltips="1" connect="1" arrows="1" fold="1" page="1" pageScale="1" pageWidth="850" pageHeight="1100" math="1" shadow="0">
      <root>
        <mxCell id="0" />
        <mxCell id="1" parent="0" />
        <mxCell id="PPsBpuw6LFoZPjxlbZUj-3" value="&lt;font style=&quot;font-size: 10px;&quot;&gt;$$\frac{\sigma(G \backslash \{v_1\})}{\sigma(G)}$$&lt;/font&gt;" style="text;html=1;strokeColor=none;fillColor=none;align=center;verticalAlign=middle;whiteSpace=wrap;rounded=0;" parent="1" vertex="1">
          <mxGeometry x="-645" y="70" width="80" height="40" as="geometry" />
        </mxCell>
        <mxCell id="-0PRJUnzq31uZYqRWIC1-4" value="&lt;span style=&quot;font-size: 24px;&quot;&gt;(1,1,1)&lt;/span&gt;" style="rounded=1;whiteSpace=wrap;html=1;labelBackgroundColor=none;fillColor=#F2CC8F;strokeColor=#E07A5F;fontColor=#393C56;" vertex="1" parent="1">
          <mxGeometry x="-800" y="285" width="80" height="40" as="geometry" />
        </mxCell>
        <mxCell id="-0PRJUnzq31uZYqRWIC1-7" value="&lt;span style=&quot;font-size: 24px;&quot;&gt;(1,1,0)&lt;/span&gt;" style="rounded=1;whiteSpace=wrap;html=1;labelBackgroundColor=none;fillColor=#F2CC8F;strokeColor=#E07A5F;fontColor=#393C56;" vertex="1" parent="1">
          <mxGeometry x="-680" y="205" width="80" height="40" as="geometry" />
        </mxCell>
        <mxCell id="-0PRJUnzq31uZYqRWIC1-10" value="&lt;span style=&quot;font-size: 24px;&quot;&gt;(1,0,1)&lt;/span&gt;" style="rounded=1;whiteSpace=wrap;html=1;labelBackgroundColor=none;fillColor=#F2CC8F;strokeColor=#E07A5F;fontColor=#393C56;" vertex="1" parent="1">
          <mxGeometry x="-680" y="365" width="80" height="40" as="geometry" />
        </mxCell>
        <mxCell id="-0PRJUnzq31uZYqRWIC1-13" value="&lt;span style=&quot;font-size: 24px;&quot;&gt;(0,1,1)&lt;/span&gt;" style="rounded=1;whiteSpace=wrap;html=1;labelBackgroundColor=none;fillColor=#F2CC8F;strokeColor=#E07A5F;fontColor=#393C56;" vertex="1" parent="1">
          <mxGeometry x="-560" y="125" width="80" height="40" as="geometry" />
        </mxCell>
        <mxCell id="-0PRJUnzq31uZYqRWIC1-15" value="&lt;span style=&quot;font-size: 24px;&quot;&gt;(0,1,0)&lt;/span&gt;" style="rounded=1;whiteSpace=wrap;html=1;labelBackgroundColor=none;fillColor=#F2CC8F;strokeColor=#E07A5F;fontColor=#393C56;" vertex="1" parent="1">
          <mxGeometry x="-440" y="205" width="80" height="40" as="geometry" />
        </mxCell>
        <mxCell id="-0PRJUnzq31uZYqRWIC1-17" value="&lt;span style=&quot;font-size: 24px;&quot;&gt;(1,0,0)&lt;/span&gt;" style="rounded=1;whiteSpace=wrap;html=1;labelBackgroundColor=none;fillColor=#F2CC8F;strokeColor=#E07A5F;fontColor=#393C56;" vertex="1" parent="1">
          <mxGeometry x="-560" y="445" width="80" height="40" as="geometry" />
        </mxCell>
        <mxCell id="-0PRJUnzq31uZYqRWIC1-19" value="&lt;span style=&quot;font-size: 24px;&quot;&gt;(0,0,1)&lt;/span&gt;" style="rounded=1;whiteSpace=wrap;html=1;labelBackgroundColor=none;fillColor=#F2CC8F;strokeColor=#E07A5F;fontColor=#393C56;" vertex="1" parent="1">
          <mxGeometry x="-440" y="365" width="80" height="40" as="geometry" />
        </mxCell>
        <mxCell id="-0PRJUnzq31uZYqRWIC1-20" value="&lt;span style=&quot;font-size: 24px;&quot;&gt;(0,0,0)&lt;/span&gt;" style="rounded=1;whiteSpace=wrap;html=1;labelBackgroundColor=none;fillColor=#F2CC8F;strokeColor=#E07A5F;fontColor=#393C56;" vertex="1" parent="1">
          <mxGeometry x="-320" y="285" width="80" height="40" as="geometry" />
        </mxCell>
        <mxCell id="-0PRJUnzq31uZYqRWIC1-21" value="" style="endArrow=classic;html=1;rounded=0;strokeColor=#b85450;fontColor=#393C56;fillColor=#f8cecc;" edge="1" parent="1">
          <mxGeometry width="50" height="50" relative="1" as="geometry">
            <mxPoint x="-260" y="84.5" as="sourcePoint" />
            <mxPoint x="-200" y="84.5" as="targetPoint" />
          </mxGeometry>
        </mxCell>
        <mxCell id="-0PRJUnzq31uZYqRWIC1-22" value="&lt;font style=&quot;font-size: 14px;&quot;&gt;节点拆除方向&lt;/font&gt;" style="text;html=1;align=center;verticalAlign=middle;resizable=0;points=[];autosize=1;strokeColor=none;fillColor=none;fontColor=#393C56;" vertex="1" parent="1">
          <mxGeometry x="-200" y="70" width="110" height="30" as="geometry" />
        </mxCell>
        <mxCell id="-0PRJUnzq31uZYqRWIC1-23" value="&lt;div style=&quot;color: rgb(59, 59, 59); background-color: rgb(255, 255, 255); font-family: &amp;quot;cascadia code&amp;quot;, Menlo, Monaco, &amp;quot;Courier New&amp;quot;, monospace, Menlo, Monaco, &amp;quot;Courier New&amp;quot;, monospace; font-size: 15px; line-height: 23px;&quot;&gt;&lt;br&gt;&lt;/div&gt;" style="text;html=1;align=center;verticalAlign=middle;resizable=0;points=[];autosize=1;strokeColor=none;fillColor=none;fontColor=#393C56;" vertex="1" parent="1">
          <mxGeometry x="-200" y="100" width="20" height="40" as="geometry" />
        </mxCell>
        <mxCell id="-0PRJUnzq31uZYqRWIC1-27" value="" style="endArrow=classic;html=1;rounded=0;strokeColor=#6c8ebf;fontColor=#393C56;fillColor=#dae8fc;" edge="1" parent="1">
          <mxGeometry width="50" height="50" relative="1" as="geometry">
            <mxPoint x="-260" y="124.5" as="sourcePoint" />
            <mxPoint x="-200" y="124.5" as="targetPoint" />
          </mxGeometry>
        </mxCell>
        <mxCell id="-0PRJUnzq31uZYqRWIC1-28" value="&lt;font style=&quot;font-size: 14px;&quot;&gt;一轮拆除示例&lt;/font&gt;" style="text;html=1;align=center;verticalAlign=middle;resizable=0;points=[];autosize=1;strokeColor=none;fillColor=none;fontColor=#393C56;" vertex="1" parent="1">
          <mxGeometry x="-200" y="110" width="110" height="30" as="geometry" />
        </mxCell>
        <mxCell id="-0PRJUnzq31uZYqRWIC1-32" value="" style="endArrow=classic;html=1;rounded=0;exitX=1;exitY=0.5;exitDx=0;exitDy=0;entryX=0;entryY=0.5;entryDx=0;entryDy=0;fillColor=#f8cecc;strokeColor=#b85450;" edge="1" parent="1" source="-0PRJUnzq31uZYqRWIC1-7" target="-0PRJUnzq31uZYqRWIC1-15">
          <mxGeometry width="50" height="50" relative="1" as="geometry">
            <mxPoint x="-500" y="95" as="sourcePoint" />
            <mxPoint x="-450" y="45" as="targetPoint" />
          </mxGeometry>
        </mxCell>
        <mxCell id="-0PRJUnzq31uZYqRWIC1-33" value="" style="endArrow=classic;html=1;rounded=0;exitX=1;exitY=0.75;exitDx=0;exitDy=0;entryX=0.5;entryY=0;entryDx=0;entryDy=0;fillColor=#f8cecc;strokeColor=#b85450;" edge="1" parent="1" source="-0PRJUnzq31uZYqRWIC1-7" target="-0PRJUnzq31uZYqRWIC1-17">
          <mxGeometry width="50" height="50" relative="1" as="geometry">
            <mxPoint x="-500" y="-45" as="sourcePoint" />
            <mxPoint x="-450" y="-95" as="targetPoint" />
            <Array as="points">
              <mxPoint x="-520" y="235" />
            </Array>
          </mxGeometry>
        </mxCell>
        <mxCell id="-0PRJUnzq31uZYqRWIC1-34" value="" style="endArrow=classic;html=1;rounded=0;exitX=0.5;exitY=1;exitDx=0;exitDy=0;entryX=0.5;entryY=0;entryDx=0;entryDy=0;fillColor=#dae8fc;strokeColor=#6c8ebf;" edge="1" parent="1" source="-0PRJUnzq31uZYqRWIC1-13" target="-0PRJUnzq31uZYqRWIC1-19">
          <mxGeometry width="50" height="50" relative="1" as="geometry">
            <mxPoint x="-430" y="95" as="sourcePoint" />
            <mxPoint x="-400" y="325" as="targetPoint" />
            <Array as="points">
              <mxPoint x="-520" y="205" />
              <mxPoint x="-480" y="205" />
              <mxPoint x="-480" y="325" />
              <mxPoint x="-400" y="325" />
            </Array>
          </mxGeometry>
        </mxCell>
        <mxCell id="-0PRJUnzq31uZYqRWIC1-35" value="" style="endArrow=classic;html=1;rounded=0;exitX=1;exitY=0.5;exitDx=0;exitDy=0;entryX=0.5;entryY=0;entryDx=0;entryDy=0;fillColor=#f8cecc;strokeColor=#b85450;" edge="1" parent="1" source="-0PRJUnzq31uZYqRWIC1-13" target="-0PRJUnzq31uZYqRWIC1-15">
          <mxGeometry width="50" height="50" relative="1" as="geometry">
            <mxPoint x="-500" y="-5" as="sourcePoint" />
            <mxPoint x="-450" y="-55" as="targetPoint" />
            <Array as="points">
              <mxPoint x="-400" y="145" />
            </Array>
          </mxGeometry>
        </mxCell>
        <mxCell id="-0PRJUnzq31uZYqRWIC1-36" value="" style="endArrow=classic;html=1;rounded=0;exitX=1;exitY=0.5;exitDx=0;exitDy=0;entryX=0.5;entryY=0;entryDx=0;entryDy=0;fillColor=#f8cecc;strokeColor=#b85450;" edge="1" parent="1" source="-0PRJUnzq31uZYqRWIC1-15" target="-0PRJUnzq31uZYqRWIC1-20">
          <mxGeometry width="50" height="50" relative="1" as="geometry">
            <mxPoint x="-500" y="105" as="sourcePoint" />
            <mxPoint x="-450" y="55" as="targetPoint" />
            <Array as="points">
              <mxPoint x="-280" y="225" />
            </Array>
          </mxGeometry>
        </mxCell>
        <mxCell id="-0PRJUnzq31uZYqRWIC1-37" value="" style="endArrow=classic;html=1;rounded=0;exitX=1;exitY=0.5;exitDx=0;exitDy=0;entryX=0.5;entryY=1;entryDx=0;entryDy=0;fillColor=#f8cecc;strokeColor=#b85450;" edge="1" parent="1" source="-0PRJUnzq31uZYqRWIC1-17" target="-0PRJUnzq31uZYqRWIC1-20">
          <mxGeometry width="50" height="50" relative="1" as="geometry">
            <mxPoint x="-470" y="465" as="sourcePoint" />
            <mxPoint x="-450" y="195" as="targetPoint" />
            <Array as="points">
              <mxPoint x="-280" y="465" />
            </Array>
          </mxGeometry>
        </mxCell>
        <mxCell id="-0PRJUnzq31uZYqRWIC1-38" value="" style="endArrow=classic;html=1;rounded=0;exitX=1;exitY=0.5;exitDx=0;exitDy=0;entryX=0;entryY=0.5;entryDx=0;entryDy=0;fillColor=#dae8fc;strokeColor=#6c8ebf;" edge="1" parent="1" source="-0PRJUnzq31uZYqRWIC1-19" target="-0PRJUnzq31uZYqRWIC1-20">
          <mxGeometry width="50" height="50" relative="1" as="geometry">
            <mxPoint x="-500" y="195" as="sourcePoint" />
            <mxPoint x="-450" y="145" as="targetPoint" />
            <Array as="points">
              <mxPoint x="-340" y="385" />
              <mxPoint x="-340" y="305" />
            </Array>
          </mxGeometry>
        </mxCell>
        <mxCell id="-0PRJUnzq31uZYqRWIC1-39" value="" style="endArrow=classic;html=1;rounded=0;exitX=1;exitY=0.25;exitDx=0;exitDy=0;entryX=0;entryY=0.5;entryDx=0;entryDy=0;fillColor=#f8cecc;strokeColor=#b85450;" edge="1" parent="1" source="-0PRJUnzq31uZYqRWIC1-4" target="-0PRJUnzq31uZYqRWIC1-7">
          <mxGeometry width="50" height="50" relative="1" as="geometry">
            <mxPoint x="-500" y="105" as="sourcePoint" />
            <mxPoint x="-450" y="55" as="targetPoint" />
            <Array as="points">
              <mxPoint x="-700" y="295" />
              <mxPoint x="-700" y="225" />
            </Array>
          </mxGeometry>
        </mxCell>
        <mxCell id="-0PRJUnzq31uZYqRWIC1-40" value="" style="endArrow=classic;html=1;rounded=0;exitX=1;exitY=0.75;exitDx=0;exitDy=0;entryX=0;entryY=0.5;entryDx=0;entryDy=0;fillColor=#f8cecc;strokeColor=#b85450;" edge="1" parent="1" source="-0PRJUnzq31uZYqRWIC1-4" target="-0PRJUnzq31uZYqRWIC1-10">
          <mxGeometry width="50" height="50" relative="1" as="geometry">
            <mxPoint x="-500" y="-25" as="sourcePoint" />
            <mxPoint x="-590" y="325" as="targetPoint" />
            <Array as="points">
              <mxPoint x="-700" y="315" />
              <mxPoint x="-700" y="385" />
            </Array>
          </mxGeometry>
        </mxCell>
        <mxCell id="-0PRJUnzq31uZYqRWIC1-41" value="" style="endArrow=classic;html=1;rounded=0;exitX=1;exitY=0.5;exitDx=0;exitDy=0;entryX=0;entryY=0.5;entryDx=0;entryDy=0;fillColor=#f8cecc;strokeColor=#b85450;" edge="1" parent="1" source="-0PRJUnzq31uZYqRWIC1-10" target="-0PRJUnzq31uZYqRWIC1-19">
          <mxGeometry width="50" height="50" relative="1" as="geometry">
            <mxPoint x="-500" y="265" as="sourcePoint" />
            <mxPoint x="-450" y="215" as="targetPoint" />
          </mxGeometry>
        </mxCell>
        <mxCell id="-0PRJUnzq31uZYqRWIC1-42" value="" style="endArrow=classic;html=1;rounded=0;exitX=0.5;exitY=0;exitDx=0;exitDy=0;entryX=0;entryY=0.5;entryDx=0;entryDy=0;fillColor=#dae8fc;strokeColor=#6c8ebf;" edge="1" parent="1" source="-0PRJUnzq31uZYqRWIC1-4" target="-0PRJUnzq31uZYqRWIC1-13">
          <mxGeometry width="50" height="50" relative="1" as="geometry">
            <mxPoint x="-500" y="185" as="sourcePoint" />
            <mxPoint x="-450" y="135" as="targetPoint" />
            <Array as="points">
              <mxPoint x="-760" y="145" />
            </Array>
          </mxGeometry>
        </mxCell>
        <mxCell id="-0PRJUnzq31uZYqRWIC1-43" value="" style="endArrow=classic;html=1;rounded=0;exitX=0.5;exitY=1;exitDx=0;exitDy=0;entryX=0;entryY=0.5;entryDx=0;entryDy=0;fillColor=#f8cecc;strokeColor=#b85450;" edge="1" parent="1" source="-0PRJUnzq31uZYqRWIC1-10" target="-0PRJUnzq31uZYqRWIC1-17">
          <mxGeometry width="50" height="50" relative="1" as="geometry">
            <mxPoint x="-500" y="175" as="sourcePoint" />
            <mxPoint x="-450" y="125" as="targetPoint" />
            <Array as="points">
              <mxPoint x="-640" y="465" />
            </Array>
          </mxGeometry>
        </mxCell>
        <mxCell id="-0PRJUnzq31uZYqRWIC1-44" value="" style="endArrow=none;dashed=1;html=1;dashPattern=1 3;strokeWidth=2;rounded=0;exitX=0.5;exitY=1;exitDx=0;exitDy=0;" edge="1" parent="1" source="PPsBpuw6LFoZPjxlbZUj-3">
          <mxGeometry width="50" height="50" relative="1" as="geometry">
            <mxPoint x="-500" y="-85" as="sourcePoint" />
            <mxPoint x="-590" y="145" as="targetPoint" />
          </mxGeometry>
        </mxCell>
        <mxCell id="-0PRJUnzq31uZYqRWIC1-45" value="&lt;font style=&quot;font-size: 10px;&quot;&gt;$$\frac{\sigma(G \backslash \{v_1, v_2\})}{\sigma(G)}$$&lt;/font&gt;" style="text;html=1;strokeColor=none;fillColor=none;align=center;verticalAlign=middle;whiteSpace=wrap;rounded=0;" vertex="1" parent="1">
          <mxGeometry x="-505" y="335" width="60" height="30" as="geometry" />
        </mxCell>
        <mxCell id="-0PRJUnzq31uZYqRWIC1-49" value="" style="endArrow=none;dashed=1;html=1;dashPattern=1 3;strokeWidth=2;rounded=0;exitX=0.5;exitY=1;exitDx=0;exitDy=0;" edge="1" parent="1" source="-0PRJUnzq31uZYqRWIC1-45">
          <mxGeometry width="50" height="50" relative="1" as="geometry">
            <mxPoint x="-500" y="105" as="sourcePoint" />
            <mxPoint x="-470" y="385" as="targetPoint" />
          </mxGeometry>
        </mxCell>
        <mxCell id="-0PRJUnzq31uZYqRWIC1-50" value="" style="endArrow=none;dashed=1;html=1;dashPattern=1 3;strokeWidth=2;rounded=0;exitX=1;exitY=0.5;exitDx=0;exitDy=0;" edge="1" parent="1" source="-0PRJUnzq31uZYqRWIC1-45">
          <mxGeometry width="50" height="50" relative="1" as="geometry">
            <mxPoint x="-500" y="105" as="sourcePoint" />
            <mxPoint x="-400" y="345" as="targetPoint" />
          </mxGeometry>
        </mxCell>
        <mxCell id="-0PRJUnzq31uZYqRWIC1-51" value="&lt;font style=&quot;font-size: 10px;&quot;&gt;$$\frac{\sigma(G \backslash \{v_1, v_2, v_3\})}{\sigma(G)}$$&lt;/font&gt;" style="text;html=1;strokeColor=none;fillColor=none;align=center;verticalAlign=middle;whiteSpace=wrap;rounded=0;" vertex="1" parent="1">
          <mxGeometry x="-465" y="275" width="95" height="30" as="geometry" />
        </mxCell>
        <mxCell id="-0PRJUnzq31uZYqRWIC1-52" value="" style="endArrow=none;dashed=1;html=1;dashPattern=1 3;strokeWidth=2;rounded=0;entryX=1;entryY=0.25;entryDx=0;entryDy=0;" edge="1" parent="1" target="-0PRJUnzq31uZYqRWIC1-51">
          <mxGeometry width="50" height="50" relative="1" as="geometry">
            <mxPoint x="-280" y="265" as="sourcePoint" />
            <mxPoint x="-450" y="85" as="targetPoint" />
          </mxGeometry>
        </mxCell>
        <mxCell id="-0PRJUnzq31uZYqRWIC1-53" value="" style="endArrow=none;dashed=1;html=1;dashPattern=1 3;strokeWidth=2;rounded=0;exitX=1;exitY=1;exitDx=0;exitDy=0;" edge="1" parent="1" source="-0PRJUnzq31uZYqRWIC1-51">
          <mxGeometry width="50" height="50" relative="1" as="geometry">
            <mxPoint x="-500" y="135" as="sourcePoint" />
            <mxPoint x="-280" y="355" as="targetPoint" />
          </mxGeometry>
        </mxCell>
        <mxCell id="-0PRJUnzq31uZYqRWIC1-54" value="" style="endArrow=none;dashed=1;html=1;dashPattern=1 3;strokeWidth=2;rounded=0;exitX=0.5;exitY=1;exitDx=0;exitDy=0;" edge="1" parent="1" source="-0PRJUnzq31uZYqRWIC1-51">
          <mxGeometry width="50" height="50" relative="1" as="geometry">
            <mxPoint x="-500" y="135" as="sourcePoint" />
            <mxPoint x="-340" y="355" as="targetPoint" />
          </mxGeometry>
        </mxCell>
      </root>
    </mxGraphModel>
  </diagram>
</mxfile>
